<?xml version="1.0" encoding="iso-8859-1"?>
<!-- Generator: Adobe Illustrator 19.0.0, SVG Export Plug-In . SVG Version: 6.00 Build 0)  -->
<svg version="1.1" id="Layer_1" xmlns="http://www.w3.org/2000/svg" xmlns:xlink="http://www.w3.org/1999/xlink" x="0px" y="0px"
	 viewBox="0 0 512 512" style="enable-background:new 0 0 512 512;" xml:space="preserve">
<circle style="fill:#9EA7DB;" cx="256" cy="256" r="256"/>
<path style="fill:#8C95C9;" d="M509.223,293.741c-16.432,111.166-104.31,199.051-215.476,215.483L148.262,363.732l215.476-215.476
	L509.223,293.741z"/>
<path style="fill:#FF8C8A;" d="M103.633,256c0-84.15,68.216-152.367,152.367-152.367S408.367,171.85,408.367,256
	S340.15,408.36,256,408.36S103.633,340.15,103.633,256z"/>
<path style="fill:#F3F3F3;" d="M191.78,191.78h0.006c8.324-8.324,21.941-8.324,30.265,0l98.169,98.169
	c8.324,8.324,8.324,21.941,0,30.265l-0.006,0.006c-8.324,8.324-21.941,8.324-30.265,0l-98.169-98.169
	C183.455,213.727,183.455,200.111,191.78,191.78z"/>
<path style="fill:#D9D9DD;" d="M320.214,320.22l0.006-0.006c1.053-1.053,1.973-2.196,2.764-3.396
	c-8.292,5.426-19.604,4.501-26.869-2.764l-98.169-98.169c-7.271-7.271-8.19-18.577-2.764-26.869
	c-1.207,0.785-2.343,1.711-3.396,2.764l-0.006,0.006c-8.324,8.324-8.324,21.941,0,30.265l98.169,98.169
	C298.273,328.538,311.889,328.545,320.214,320.22z"/>
<path style="fill:#F3F3F3;" d="M320.214,191.78L320.214,191.78c-8.324-8.324-21.947-8.324-30.272,0l-98.169,98.169
	c-8.318,8.324-8.324,21.941,0,30.265l0.006,0.006c8.324,8.324,21.947,8.324,30.272,0l98.162-98.169
	C328.538,213.727,328.538,200.111,320.214,191.78z"/>
<path style="fill:#D9D9DD;" d="M191.78,320.22l-0.006-0.006c-1.053-1.053-1.973-2.196-2.758-3.396
	c8.292,5.426,19.598,4.501,26.869-2.764l98.169-98.169c7.265-7.271,8.19-18.577,2.758-26.869c1.207,0.785,2.343,1.711,3.403,2.764
	v0.006c8.324,8.324,8.324,21.941,0,30.265l-98.162,98.169C213.727,328.538,200.104,328.545,191.78,320.22z"/>
<g>
</g>
<g>
</g>
<g>
</g>
<g>
</g>
<g>
</g>
<g>
</g>
<g>
</g>
<g>
</g>
<g>
</g>
<g>
</g>
<g>
</g>
<g>
</g>
<g>
</g>
<g>
</g>
<g>
</g>
</svg>
