<svg id="Flat" height="512" viewBox="0 0 512 512" width="512" xmlns="http://www.w3.org/2000/svg"><path d="m344 272-32-48v-32h-112v32l-32 48v64h176z" fill="#798b9b"/><path d="m144 160h224v16h-224z" fill="#57646f"/><path d="m296 64h-32v-16h16v-16h-16v-16h-16v16h-16v16h16v16h-32v16h32v32h16v-32h32z" fill="#57646f"/><path d="m296 136h-80l8-32h64z" fill="#798b9b"/><path d="m88 335.04v-43.84a16.033 16.033 0 0 1 11.68-15.44l64-17.92a15.981 15.981 0 0 1 20.32 15.44v61.76z" fill="#abbac2"/><path d="m104 238.88h16.001v58.241h-16.001z" fill="#57646f" transform="matrix(.962 -.275 .275 .962 -69.316 41.08)"/><path d="m136 230.88h16.001v58.241h-16.001z" fill="#57646f" transform="matrix(.962 -.275 .275 .962 -65.887 49.564)"/><rect fill="#abbac2" height="64" rx="8" width="160" x="176" y="136"/><path d="m200 160h16v16h-16z" fill="#798b9b"/><path d="m232 160h16v16h-16z" fill="#798b9b"/><path d="m264 160h16v16h-16z" fill="#798b9b"/><path d="m296 160h16v16h-16z" fill="#798b9b"/><path d="m294.431 271.845-38.431-7.687-38.431 7.687-3.138-15.69 40-8a8.006 8.006 0 0 1 3.138 0l40 8z" fill="#abbac2"/><path d="m424 335.04v-43.84a16.033 16.033 0 0 0 -11.68-15.44l-64-17.92a15.981 15.981 0 0 0 -20.32 15.44v61.76z" fill="#abbac2"/><path d="m370.88 260h58.241v16.001h-58.241z" fill="#57646f" transform="matrix(.275 -.962 .962 .275 32.423 578.984)"/><path d="m338.88 252h58.241v16.001h-58.241z" fill="#57646f" transform="matrix(.275 -.962 .962 .275 16.906 542.413)"/><path d="m256 288-200 56 38 152h324l38-152z" fill="#abbac2"/><path d="m56 344 200-56 200 56-9.36 37.36-190.64-53.36-190.64 53.36z" fill="#57646f"/><g fill="#798b9b"><path d="m216 360h16v16h-16z"/><path d="m184 376h16v16h-16z"/><path d="m280 360h16v16h-16z"/><path d="m312 376h16v16h-16z"/><rect height="144" rx="8" width="16" x="248" y="296"/></g><path d="m24 496h464v-24c-25.8 0-25.8-18.56-51.606-18.56s-25.803 18.56-51.606 18.56c-25.788 0-25.788-18.56-51.571-18.56-25.763 0-25.763 18.56-51.526 18.56s-25.777-18.56-51.554-18.56-25.77 18.56-51.537 18.56-25.77-18.56-51.54-18.56-25.773 18.56-51.543 18.56-25.758-18.56-51.517-18.56z" fill="#0093ba"/></svg>